<mxfile host="www.draw.io" modified="2024-03-29T03:28:25.247Z" agent="Mozilla/5.0 (Windows NT 10.0; Win64; x64) AppleWebKit/537.36 (KHTML, like Gecko) Chrome/123.0.0.0 Safari/537.36" etag="FQQ3uCqE_0k6E7f5gr8H" version="24.2.0" type="device">
  <diagram name="Page-1" id="ghLU2QvZogxc2ZxFxqYA">
    <mxGraphModel dx="2261" dy="746" grid="1" gridSize="10" guides="1" tooltips="1" connect="1" arrows="1" fold="1" page="1" pageScale="1" pageWidth="827" pageHeight="1169" math="0" shadow="0">
      <root>
        <mxCell id="0" />
        <mxCell id="1" parent="0" />
        <mxCell id="4mxuLvF6SYFNdhMcDkmm-1" value="" style="edgeStyle=orthogonalEdgeStyle;rounded=0;orthogonalLoop=1;jettySize=auto;html=1;" edge="1" parent="1" source="4mxuLvF6SYFNdhMcDkmm-5" target="4mxuLvF6SYFNdhMcDkmm-9">
          <mxGeometry relative="1" as="geometry" />
        </mxCell>
        <mxCell id="4mxuLvF6SYFNdhMcDkmm-2" style="edgeStyle=orthogonalEdgeStyle;rounded=0;orthogonalLoop=1;jettySize=auto;html=1;exitX=0.5;exitY=1;exitDx=0;exitDy=0;entryX=0.5;entryY=0;entryDx=0;entryDy=0;" edge="1" parent="1" source="4mxuLvF6SYFNdhMcDkmm-5" target="4mxuLvF6SYFNdhMcDkmm-7">
          <mxGeometry relative="1" as="geometry" />
        </mxCell>
        <mxCell id="4mxuLvF6SYFNdhMcDkmm-3" style="edgeStyle=orthogonalEdgeStyle;rounded=0;orthogonalLoop=1;jettySize=auto;html=1;exitX=0.5;exitY=1;exitDx=0;exitDy=0;entryX=0.5;entryY=0;entryDx=0;entryDy=0;" edge="1" parent="1" source="4mxuLvF6SYFNdhMcDkmm-5" target="4mxuLvF6SYFNdhMcDkmm-11">
          <mxGeometry relative="1" as="geometry" />
        </mxCell>
        <mxCell id="4mxuLvF6SYFNdhMcDkmm-4" style="edgeStyle=orthogonalEdgeStyle;rounded=0;orthogonalLoop=1;jettySize=auto;html=1;exitX=1;exitY=0.5;exitDx=0;exitDy=0;entryX=0.5;entryY=0;entryDx=0;entryDy=0;" edge="1" parent="1" source="4mxuLvF6SYFNdhMcDkmm-5" target="4mxuLvF6SYFNdhMcDkmm-21">
          <mxGeometry relative="1" as="geometry">
            <mxPoint x="-60" y="380" as="targetPoint" />
          </mxGeometry>
        </mxCell>
        <mxCell id="4mxuLvF6SYFNdhMcDkmm-5" value="&lt;b&gt;&lt;font style=&quot;font-size: 16px;&quot;&gt;Input&lt;/font&gt;&lt;/b&gt;" style="rounded=0;whiteSpace=wrap;html=1;fillColor=#f5f5f5;fontColor=#333333;strokeColor=#666666;" vertex="1" parent="1">
          <mxGeometry x="-340" y="50" width="100" height="40" as="geometry" />
        </mxCell>
        <mxCell id="4mxuLvF6SYFNdhMcDkmm-6" style="edgeStyle=orthogonalEdgeStyle;rounded=0;orthogonalLoop=1;jettySize=auto;html=1;exitX=0.5;exitY=1;exitDx=0;exitDy=0;entryX=0.5;entryY=0;entryDx=0;entryDy=0;" edge="1" parent="1" source="4mxuLvF6SYFNdhMcDkmm-7" target="4mxuLvF6SYFNdhMcDkmm-17">
          <mxGeometry relative="1" as="geometry">
            <Array as="points">
              <mxPoint x="-430" y="320" />
              <mxPoint x="-290" y="320" />
            </Array>
          </mxGeometry>
        </mxCell>
        <mxCell id="4mxuLvF6SYFNdhMcDkmm-7" value="&lt;span style=&quot;font-size: 16px;&quot;&gt;&lt;b&gt;1 * 1 Conv, 16&lt;/b&gt;&lt;/span&gt;" style="rounded=0;whiteSpace=wrap;html=1;fillColor=#f8cecc;strokeColor=#b85450;" vertex="1" parent="1">
          <mxGeometry x="-480" y="150" width="100" height="40" as="geometry" />
        </mxCell>
        <mxCell id="4mxuLvF6SYFNdhMcDkmm-8" value="" style="edgeStyle=orthogonalEdgeStyle;rounded=0;orthogonalLoop=1;jettySize=auto;html=1;entryX=0.5;entryY=0;entryDx=0;entryDy=0;" edge="1" parent="1" source="4mxuLvF6SYFNdhMcDkmm-9" target="4mxuLvF6SYFNdhMcDkmm-25">
          <mxGeometry relative="1" as="geometry">
            <mxPoint x="-290" y="240" as="targetPoint" />
          </mxGeometry>
        </mxCell>
        <mxCell id="4mxuLvF6SYFNdhMcDkmm-9" value="&lt;b&gt;&lt;font style=&quot;font-size: 16px;&quot;&gt;1 * 1 Conv, 16&lt;/font&gt;&lt;/b&gt;" style="rounded=0;whiteSpace=wrap;html=1;fillColor=#f8cecc;strokeColor=#b85450;" vertex="1" parent="1">
          <mxGeometry x="-340" y="150" width="100" height="40" as="geometry" />
        </mxCell>
        <mxCell id="4mxuLvF6SYFNdhMcDkmm-10" value="" style="edgeStyle=orthogonalEdgeStyle;rounded=0;orthogonalLoop=1;jettySize=auto;html=1;" edge="1" parent="1" source="4mxuLvF6SYFNdhMcDkmm-11" target="4mxuLvF6SYFNdhMcDkmm-15">
          <mxGeometry relative="1" as="geometry" />
        </mxCell>
        <mxCell id="4mxuLvF6SYFNdhMcDkmm-11" value="&lt;font size=&quot;1&quot;&gt;&lt;b style=&quot;font-size: 16px;&quot;&gt;1 * 1 Conv, 16&lt;/b&gt;&lt;/font&gt;" style="rounded=0;whiteSpace=wrap;html=1;fillColor=#f8cecc;strokeColor=#b85450;" vertex="1" parent="1">
          <mxGeometry x="-200" y="150" width="100" height="40" as="geometry" />
        </mxCell>
        <mxCell id="4mxuLvF6SYFNdhMcDkmm-12" style="edgeStyle=orthogonalEdgeStyle;rounded=0;orthogonalLoop=1;jettySize=auto;html=1;entryX=0.5;entryY=0;entryDx=0;entryDy=0;" edge="1" parent="1" source="4mxuLvF6SYFNdhMcDkmm-25" target="4mxuLvF6SYFNdhMcDkmm-17">
          <mxGeometry relative="1" as="geometry">
            <mxPoint x="-290" y="280" as="sourcePoint" />
          </mxGeometry>
        </mxCell>
        <mxCell id="4mxuLvF6SYFNdhMcDkmm-14" style="edgeStyle=orthogonalEdgeStyle;rounded=0;orthogonalLoop=1;jettySize=auto;html=1;exitX=0.5;exitY=1;exitDx=0;exitDy=0;entryX=0.5;entryY=0;entryDx=0;entryDy=0;" edge="1" parent="1" source="4mxuLvF6SYFNdhMcDkmm-15" target="4mxuLvF6SYFNdhMcDkmm-17">
          <mxGeometry relative="1" as="geometry">
            <mxPoint x="-160" y="330" as="targetPoint" />
            <Array as="points">
              <mxPoint x="-150" y="320" />
              <mxPoint x="-290" y="320" />
            </Array>
          </mxGeometry>
        </mxCell>
        <mxCell id="4mxuLvF6SYFNdhMcDkmm-15" value="&lt;font size=&quot;1&quot;&gt;&lt;b style=&quot;font-size: 16px;&quot;&gt;3 * 3 Conv, 8&lt;/b&gt;&lt;/font&gt;" style="rounded=0;whiteSpace=wrap;html=1;fillColor=#f8cecc;strokeColor=#b85450;" vertex="1" parent="1">
          <mxGeometry x="-200" y="240" width="100" height="40" as="geometry" />
        </mxCell>
        <mxCell id="4mxuLvF6SYFNdhMcDkmm-16" value="" style="edgeStyle=orthogonalEdgeStyle;rounded=0;orthogonalLoop=1;jettySize=auto;html=1;" edge="1" parent="1" source="4mxuLvF6SYFNdhMcDkmm-17" target="4mxuLvF6SYFNdhMcDkmm-19">
          <mxGeometry relative="1" as="geometry" />
        </mxCell>
        <mxCell id="4mxuLvF6SYFNdhMcDkmm-17" value="&lt;b&gt;&lt;font style=&quot;font-size: 16px;&quot;&gt;Concatenate&lt;/font&gt;&lt;/b&gt;" style="rounded=0;whiteSpace=wrap;html=1;fillColor=#f5f5f5;fontColor=#333333;strokeColor=#666666;" vertex="1" parent="1">
          <mxGeometry x="-345" y="330" width="110" height="40" as="geometry" />
        </mxCell>
        <mxCell id="4mxuLvF6SYFNdhMcDkmm-18" value="" style="edgeStyle=orthogonalEdgeStyle;rounded=0;orthogonalLoop=1;jettySize=auto;html=1;" edge="1" parent="1" source="4mxuLvF6SYFNdhMcDkmm-19" target="4mxuLvF6SYFNdhMcDkmm-23">
          <mxGeometry relative="1" as="geometry" />
        </mxCell>
        <mxCell id="4mxuLvF6SYFNdhMcDkmm-19" value="&lt;b&gt;&lt;font style=&quot;font-size: 16px;&quot;&gt;1 * 1 Conv, 48&lt;/font&gt;&lt;/b&gt;" style="rounded=0;whiteSpace=wrap;html=1;fillColor=#f8cecc;strokeColor=#b85450;" vertex="1" parent="1">
          <mxGeometry x="-340" y="400" width="100" height="40" as="geometry" />
        </mxCell>
        <mxCell id="4mxuLvF6SYFNdhMcDkmm-20" style="edgeStyle=orthogonalEdgeStyle;rounded=0;orthogonalLoop=1;jettySize=auto;html=1;exitX=0.5;exitY=1;exitDx=0;exitDy=0;entryX=1;entryY=0.5;entryDx=0;entryDy=0;" edge="1" parent="1" source="4mxuLvF6SYFNdhMcDkmm-21" target="4mxuLvF6SYFNdhMcDkmm-23">
          <mxGeometry relative="1" as="geometry" />
        </mxCell>
        <mxCell id="4mxuLvF6SYFNdhMcDkmm-21" value="&lt;b&gt;&lt;font style=&quot;font-size: 16px;&quot;&gt;1 * 1 Conv, 48&lt;/font&gt;&lt;/b&gt;" style="rounded=0;whiteSpace=wrap;html=1;fillColor=#f8cecc;strokeColor=#b85450;" vertex="1" parent="1">
          <mxGeometry x="-130" y="330" width="100" height="40" as="geometry" />
        </mxCell>
        <mxCell id="4mxuLvF6SYFNdhMcDkmm-22" value="" style="edgeStyle=orthogonalEdgeStyle;rounded=0;orthogonalLoop=1;jettySize=auto;html=1;" edge="1" parent="1" source="4mxuLvF6SYFNdhMcDkmm-23" target="4mxuLvF6SYFNdhMcDkmm-24">
          <mxGeometry relative="1" as="geometry" />
        </mxCell>
        <mxCell id="4mxuLvF6SYFNdhMcDkmm-23" value="&lt;b&gt;&lt;font style=&quot;font-size: 16px;&quot;&gt;Add&lt;/font&gt;&lt;/b&gt;" style="rounded=0;whiteSpace=wrap;html=1;fillColor=#f5f5f5;fontColor=#333333;strokeColor=#666666;" vertex="1" parent="1">
          <mxGeometry x="-345" y="460" width="110" height="40" as="geometry" />
        </mxCell>
        <mxCell id="4mxuLvF6SYFNdhMcDkmm-24" value="&lt;b&gt;&lt;font style=&quot;font-size: 16px;&quot;&gt;ReLU&lt;/font&gt;&lt;/b&gt;" style="rounded=0;whiteSpace=wrap;html=1;fillColor=#dae8fc;strokeColor=#6c8ebf;" vertex="1" parent="1">
          <mxGeometry x="-345" y="530" width="110" height="40" as="geometry" />
        </mxCell>
        <mxCell id="4mxuLvF6SYFNdhMcDkmm-25" value="&lt;span style=&quot;font-size: 16px;&quot;&gt;&lt;b&gt;3 * 3&lt;/b&gt;&lt;/span&gt;&lt;div&gt;&lt;span style=&quot;font-size: 16px;&quot;&gt;&lt;b&gt;DepthwiseConv,&lt;/b&gt;&lt;/span&gt;&lt;/div&gt;" style="rounded=0;whiteSpace=wrap;html=1;fillColor=#A20025;strokeColor=#6F0000;fontColor=#ffffff;" vertex="1" parent="1">
          <mxGeometry x="-355" y="220" width="130" height="60" as="geometry" />
        </mxCell>
      </root>
    </mxGraphModel>
  </diagram>
</mxfile>
